<?xml version="1.0" encoding="iso-8859-1"?>
<!-- Generator: Adobe Illustrator 19.0.0, SVG Export Plug-In . SVG Version: 6.00 Build 0)  -->
<svg version="1.1" id="Capa_1" xmlns="http://www.w3.org/2000/svg" xmlns:xlink="http://www.w3.org/1999/xlink" x="0px" y="0px"
	 viewBox="0 0 511.891 511.891" style="enable-background:new 0 0 511.891 511.891;" xml:space="preserve">
<g>
	<g>
		<g>
			<path d="M485.029,108.004c-18.939-17.55-44.823-25.551-70.362-21.75c-23.513,3.152-45.186,14.419-61.273,31.855l-3.386-13.82
				l23.677-30.885c1.978-2.577,2.32-6.054,0.882-8.968c-1.437-2.914-4.404-4.758-7.653-4.757H179.179
				c-3.249-0.001-6.216,1.843-7.653,4.757c-1.437,2.914-1.095,6.391,0.883,8.968l23.677,30.885l-25.252,103.053l-83.949-91.556
				V86.308c-0.001-7.239-4.362-13.764-11.05-16.533c-6.688-2.77-14.385-1.239-19.504,3.879L5.242,124.741
				c-5.118,5.119-6.649,12.816-3.879,19.504c2.77,6.688,9.295,11.049,16.533,11.05h27.253l89.88,198.165l-15.337,62.589
				c-0.163,0.664-0.245,1.345-0.246,2.029v8.533c0.015,14.132,11.468,25.585,25.6,25.6h256c14.132-0.015,25.585-11.468,25.6-25.6
				v-8.533c0-0.684-0.083-1.365-0.246-2.029l-16.898-68.961c-1.345-19.771,3.595-39.461,14.114-56.256
				c10.765-14.609,23.811-27.39,38.638-37.854c8.038-6.371,16.35-12.962,24.025-20.3c16.661-16.286,25.916-38.691,25.604-61.987
				C511.889,147.001,502.183,124.344,485.029,108.004z M349.617,76.745l-13.083,17.067H209.559l-13.083-17.067H349.617z
				 M348.687,170.612H197.405l14.637-59.733H334.05L348.687,170.612z M193.223,187.679h159.647l39.635,161.749
				c0.017,0.309,0.005,0.608,0.024,0.918c0.093,1.22,0.452,2.405,1.051,3.471l1.109,4.529H151.402L193.223,187.679z M17.896,138.229
				c-0.347,0.04-0.671-0.177-0.767-0.513c-0.168-0.306-0.093-0.689,0.179-0.908L68.396,85.72c0.213-0.282,0.604-0.359,0.908-0.179
				c0.335,0.096,0.552,0.42,0.513,0.767v29.203l-22.65,22.718H17.896z M60.875,148.649l17.183-17.233l87.891,95.856l-24.348,99.364
				L60.875,148.649z M409.579,419.108v7.504c-0.006,4.71-3.823,8.527-8.533,8.533h-256c-4.71-0.006-8.527-3.823-8.533-8.533v-7.504
				l10.707-43.696h251.652L409.579,419.108z M474.488,220.346c-7.104,6.788-15.104,13.129-22.837,19.262
				c-16.269,11.57-30.552,25.704-42.292,41.85c-4.407,6.764-7.976,14.037-10.631,21.66l-40.216-164.12
				c13.479-19.69,34.7-32.715,58.359-35.82c20.485-3.09,41.267,3.272,56.513,17.3c13.729,13.132,21.476,31.318,21.433,50.317
				C495.107,189.398,487.76,207.307,474.488,220.346z"/>
			<path d="M214.119,297.42c-5.131,9.909-3.258,22,4.632,29.891c7.89,7.891,19.98,9.767,29.89,4.638
				c3.373,10.637,13.247,17.863,24.405,17.863c11.159,0,21.032-7.227,24.405-17.863c9.91,5.137,22.006,3.264,29.898-4.629
				c7.892-7.894,9.763-19.99,4.624-29.899c10.641-3.371,17.872-13.247,17.872-24.409c0-11.162-7.232-21.038-17.873-24.408h0
				c5.131-9.909,3.258-22-4.632-29.891c-7.89-7.891-19.98-9.767-29.89-4.638c-3.374-10.636-13.247-17.863-24.406-17.863
				c-11.158,0-21.032,7.227-24.405,17.863c-9.91-5.138-22.006-3.265-29.899,4.629s-9.763,19.991-4.623,29.9
				c-10.641,3.37-17.873,13.246-17.873,24.408S203.477,294.05,214.119,297.42z M242.876,315.25
				c-2.156,2.156-5.298,2.998-8.243,2.209c-2.945-0.789-5.245-3.089-6.034-6.034c-0.789-2.945,0.053-6.087,2.208-8.243l6.679-6.679
				c3.175,4.789,7.279,8.893,12.068,12.068L242.876,315.25z M281.579,324.212c0,4.713-3.821,8.533-8.533,8.533
				c-4.713,0-8.533-3.82-8.533-8.533v-9.396c5.631,1.15,11.436,1.15,17.067,0V324.212z M315.284,315.25
				c-1.6,1.6-3.771,2.5-6.034,2.5s-4.434-0.899-6.034-2.5l-6.679-6.679c4.79-3.175,8.893-7.279,12.068-12.068l6.679,6.679
				C318.616,306.514,318.616,311.917,315.284,315.25z M332.779,273.012c0,4.713-3.82,8.533-8.533,8.533h-9.396
				c1.15-5.631,1.15-11.436,0-17.067h9.396C328.959,264.479,332.779,268.299,332.779,273.012z M303.216,230.774
				c3.333-3.333,8.736-3.333,12.068,0c3.333,3.333,3.333,8.736,0,12.068l-6.68,6.679c-3.175-4.79-7.278-8.893-12.068-12.068
				L303.216,230.774z M264.513,221.812c0-4.713,3.821-8.533,8.533-8.533c4.713,0,8.533,3.82,8.533,8.533v9.396
				c-5.631-1.15-11.436-1.15-17.067,0V221.812z M273.046,247.412c14.138,0,25.6,11.461,25.6,25.6
				c-0.015,14.132-11.468,25.585-25.6,25.6c-14.139,0-25.6-11.462-25.6-25.6S258.907,247.412,273.046,247.412z M230.808,230.774
				c1.6-1.6,3.771-2.5,6.034-2.5s4.434,0.899,6.034,2.5l6.679,6.679c-4.789,3.175-8.893,7.279-12.068,12.068l-6.68-6.679
				C227.476,239.51,227.476,234.107,230.808,230.774z M221.846,264.479h9.396c-1.15,5.631-1.15,11.436,0,17.067h-9.396
				c-4.713,0-8.533-3.82-8.533-8.533S217.133,264.479,221.846,264.479z"/>
		</g>
	</g>
</g>
<g>
</g>
<g>
</g>
<g>
</g>
<g>
</g>
<g>
</g>
<g>
</g>
<g>
</g>
<g>
</g>
<g>
</g>
<g>
</g>
<g>
</g>
<g>
</g>
<g>
</g>
<g>
</g>
<g>
</g>
</svg>
